<svg xmlns="http://www.w3.org/2000/svg" xmlns:xlink="http://www.w3.org/1999/xlink" viewBox="0 0 61.5 65.9"><defs><linearGradient id="a" x1="-1411.03" y1="-172.3" x2="-1395.85" y2="-172.3" gradientTransform="translate(-1380.38 -136.6) rotate(180)" gradientUnits="userSpaceOnUse"><stop offset="0" stop-color="#3e3c3e"/><stop offset="1" stop-color="#474648"/></linearGradient><linearGradient id="b" x1="-1411.03" y1="-173.7" x2="-1395.85" y2="-173.7" gradientTransform="translate(-1380.38 -136.6) rotate(180)" gradientUnits="userSpaceOnUse"><stop offset="0" stop-color="#3e3c3e"/><stop offset="0.72" stop-color="#3e3c3e"/><stop offset="0.86" stop-color="#3e3c3e"/></linearGradient><linearGradient id="c" x1="-1389.39" y1="-181.31" x2="-1384.56" y2="-170.81" gradientTransform="translate(-1380.38 -136.6) rotate(180)" gradientUnits="userSpaceOnUse"><stop offset="0" stop-color="#3d393b"/><stop offset="0.14" stop-color="#39302f"/><stop offset="0.73" stop-color="#515c60"/><stop offset="0.88" stop-color="#4f595d"/><stop offset="0.99" stop-color="#4b5053"/><stop offset="1" stop-color="#4a4f52"/></linearGradient><linearGradient id="d" x1="-1406.31" y1="-191.04" x2="-1401.47" y2="-180.54" xlink:href="#c"/><linearGradient id="e" x1="-1395.85" y1="-171.45" x2="-1382.85" y2="-171.45" gradientTransform="translate(-1380.38 -136.6) rotate(180)" gradientUnits="userSpaceOnUse"><stop offset="0" stop-color="#ffdb00"/><stop offset="1" stop-color="#ddb300"/></linearGradient><linearGradient id="f" x1="-1408.81" y1="-179.62" x2="-1406.98" y2="-175.65" gradientTransform="translate(-1380.38 -136.6) rotate(180)" gradientUnits="userSpaceOnUse"><stop offset="0" stop-color="#ffce00"/><stop offset="1" stop-color="#d0b100"/></linearGradient><linearGradient id="g" x1="-1404.86" y1="-177.45" x2="-1401.47" y2="-177.45" gradientTransform="translate(-1380.38 -136.6) rotate(180)" gradientUnits="userSpaceOnUse"><stop offset="0" stop-color="#3e3c3e"/><stop offset="1" stop-color="#58595b"/></linearGradient><linearGradient id="h" x1="494.36" y1="-554.4" x2="494.36" y2="-550.01" gradientTransform="matrix(0.87, -0.5, 0, -1.15, -399.42, -351.4)" xlink:href="#g"/><linearGradient id="i" x1="-1395.85" y1="-177.4" x2="-1394.58" y2="-177.4" xlink:href="#b"/><linearGradient id="j" x1="-1397.52" y1="-165.71" x2="-1395.85" y2="-165.71" gradientTransform="translate(-1380.38 -136.6) rotate(180)" gradientUnits="userSpaceOnUse"><stop offset="0" stop-color="#474648"/><stop offset="1" stop-color="#3e3c3e"/></linearGradient><linearGradient id="k" x1="-1527.04" y1="-478.69" x2="-1527.04" y2="-469.32" gradientTransform="matrix(-0.87, 0.5, 0, -1.15, -1294.07, 247.54)" xlink:href="#g"/><linearGradient id="l" x1="-1409.83" y1="-159.96" x2="-1402.33" y2="-159.96" xlink:href="#b"/><linearGradient id="m" x1="-1418.13" y1="-176.2" x2="-1418.13" y2="-151.66" xlink:href="#g"/><linearGradient id="n" x1="-1411.03" y1="-179.9" x2="-1411.03" y2="-154.84" xlink:href="#g"/><linearGradient id="o" x1="-1410.86" y1="-173.5" x2="-1409.32" y2="-175.75" gradientTransform="translate(-1380.38 -136.6) rotate(180)" gradientUnits="userSpaceOnUse"><stop offset="0" stop-color="#6d6e70"/><stop offset="0.1" stop-color="#676769"/><stop offset="0.24" stop-color="#555456"/><stop offset="0.41" stop-color="#383637"/><stop offset="0.52" stop-color="#231f20"/></linearGradient><linearGradient id="p" x1="-1409.73" y1="-190.05" x2="-1408.81" y2="-188.37" gradientTransform="translate(-1380.38 -136.6) rotate(180)" gradientUnits="userSpaceOnUse"><stop offset="0" stop-color="#fff140"/><stop offset="0.53" stop-color="#fff9ad"/><stop offset="0.98" stop-color="#fff140"/></linearGradient><linearGradient id="q" x1="-1420.94" y1="-183.57" x2="-1420.03" y2="-181.89" xlink:href="#p"/><linearGradient id="r" x1="-1394.6" y1="-166.6" x2="-1392.53" y2="-166.6" xlink:href="#j"/><linearGradient id="s" x1="-1393.74" y1="-164.05" x2="-1392.69" y2="-164.05" xlink:href="#j"/><linearGradient id="t" x1="-1393.35" y1="-161.5" x2="-1392.3" y2="-161.5" xlink:href="#j"/><linearGradient id="u" x1="1006.95" y1="-193.35" x2="1030.17" y2="-193.35" gradientTransform="matrix(1, 0, 0, -1, -975.72, -136.6)" gradientUnits="userSpaceOnUse"><stop offset="0" stop-color="#cdb081"/><stop offset="1" stop-color="#e4c595"/></linearGradient><linearGradient id="v" x1="33.8" y1="-194.35" x2="54.46" y2="-194.35" gradientTransform="matrix(1, 0, 0, -1, 0, -136.6)" gradientUnits="userSpaceOnUse"><stop offset="0" stop-color="#826f59"/><stop offset="1" stop-color="#8a7660"/></linearGradient><linearGradient id="w" x1="999.92" y1="-189.3" x2="1023.15" y2="-189.3" xlink:href="#u"/><linearGradient id="x" x1="26.8" y1="-190.3" x2="47.46" y2="-190.3" xlink:href="#v"/><linearGradient id="y" x1="999.92" y1="-196.5" x2="1019.05" y2="-196.5" xlink:href="#u"/><linearGradient id="z" x1="1018.02" y1="-186.1" x2="1037.22" y2="-186.1" xlink:href="#u"/><linearGradient id="aa" x1="1009.32" y1="-191.1" x2="1028.52" y2="-191.1" xlink:href="#u"/><linearGradient id="ab" x1="1010.52" y1="-192.8" x2="1033.68" y2="-192.8" gradientTransform="matrix(1, 0, 0, -1, -975.72, -136.6)" gradientUnits="userSpaceOnUse"><stop offset="0" stop-color="#e4c595"/><stop offset="1" stop-color="#cdb081"/></linearGradient><linearGradient id="ac" x1="1007.02" y1="-190.8" x2="1030.18" y2="-190.8" xlink:href="#ab"/><linearGradient id="ad" x1="1003.48" y1="-188.8" x2="1026.65" y2="-188.8" xlink:href="#ab"/><linearGradient id="ae" x1="999.92" y1="-186.7" x2="1023.08" y2="-186.7" xlink:href="#ab"/><linearGradient id="af" x1="-1347.74" y1="-185.51" x2="-1342.54" y2="-181.47" gradientTransform="translate(-1295.36 -136.6) rotate(180)" gradientUnits="userSpaceOnUse"><stop offset="0" stop-color="#b6956b"/><stop offset="1" stop-color="#c3a277"/></linearGradient><linearGradient id="ag" x1="-1344.05" y1="-174.65" x2="-1339.86" y2="-180.68" gradientTransform="translate(-1295.36 -136.6) rotate(180)" xlink:href="#u"/><linearGradient id="ah" x1="-412.57" y1="-185.64" x2="-407.59" y2="-181.32" gradientTransform="matrix(1, 0, 0, -1, 453.3, -136.6)" gradientUnits="userSpaceOnUse"><stop offset="0.13" stop-color="#a78258"/><stop offset="0.51" stop-color="#a27d53"/><stop offset="1" stop-color="#926f45"/></linearGradient><linearGradient id="ai" x1="-1341.15" y1="-189.32" x2="-1335.95" y2="-185.27" xlink:href="#af"/><linearGradient id="aj" x1="-1337.48" y1="-178.47" x2="-1333.3" y2="-184.5" gradientTransform="translate(-1295.36 -136.6) rotate(180)" xlink:href="#u"/><linearGradient id="ak" x1="-419.15" y1="-189.46" x2="-414.17" y2="-185.15" xlink:href="#ah"/><linearGradient id="al" x1="-1334.58" y1="-193.1" x2="-1329.38" y2="-189.06" xlink:href="#af"/><linearGradient id="am" x1="-1330.89" y1="-182.26" x2="-1326.7" y2="-188.29" gradientTransform="translate(-1295.36 -136.6) rotate(180)" xlink:href="#u"/><linearGradient id="an" x1="-425.72" y1="-193.28" x2="-420.74" y2="-188.97" gradientTransform="matrix(1, 0, 0, -1, 453.3, -136.6)" xlink:href="#af"/><linearGradient id="ao" x1="-1350.64" y1="-178.46" x2="-1346.46" y2="-184.48" gradientTransform="translate(-1295.36 -136.6) rotate(180)" xlink:href="#u"/><linearGradient id="ap" x1="-405.98" y1="-189.45" x2="-401" y2="-185.13" xlink:href="#ah"/><linearGradient id="aq" x1="-1347.75" y1="-193.11" x2="-1342.54" y2="-189.07" gradientTransform="translate(-1295.36 -136.6) rotate(180)" xlink:href="#ah"/><linearGradient id="ar" x1="-1344.04" y1="-182.25" x2="-1339.86" y2="-188.28" gradientTransform="translate(-1295.36 -136.6) rotate(180)" xlink:href="#u"/><linearGradient id="as" x1="-412.58" y1="-193.24" x2="-407.6" y2="-188.93" xlink:href="#ah"/><linearGradient id="at" x1="-1341.15" y1="-196.92" x2="-1335.95" y2="-192.87" gradientTransform="translate(-1295.36 -136.6) rotate(180)" xlink:href="#ah"/><linearGradient id="au" x1="-1337.48" y1="-186.07" x2="-1333.3" y2="-192.1" gradientTransform="translate(-1295.36 -136.6) rotate(180)" xlink:href="#u"/><linearGradient id="av" x1="-419.14" y1="-197.06" x2="-414.16" y2="-192.74" gradientTransform="matrix(1, 0, 0, -1, 453.3, -136.6)" xlink:href="#af"/></defs><polygon points="19.3 17.2 19.3 17.2 23.1 0.9 22.5 0.5 23.3 0 24.2 0.5 24.2 0.5 33.2 5.7 37 35.5 36.1 35.5 32.3 6.4 23.9 1.6 20.3 17.5 20.3 17.5 20.8 19.8 30.6 30.6 29.9 31.1 20 20.3 20 20.3 19.3 17.2" style="fill:#58595b"/><polygon points="18.6 17.7 18.6 17.7 22.5 0.5 23.4 1.1 23.4 1.1 32.4 6.3 36.2 36 35.3 36.1 31.6 6.9 31.3 7.2 23.3 2.6 23.2 2.1 19.5 18 19.5 18 20.1 20.3 29.9 31.1 29.9 32.5 19.3 20.8 19.3 20.8 18.6 17.7" style="fill:#302d2e"/><polygon points="39.3 39.3 24.1 48.1 19.2 44.3 34.3 35.6 39.3 39.3" style="fill:#302d2e"/><polygon points="30.7 30.6 15.5 39.4 15.5 40.8 30.7 32 30.7 30.6" style="fill:url(#a)"/><polygon points="30.7 33.4 15.5 42.2 15.5 40.8 30.7 32 30.7 33.4" style="fill:url(#b)"/><polygon points="30.7 33.4 15.5 42.2 19.2 44.3 34.3 35.6 30.7 33.4" style="fill:#fff140"/><polygon points="30.7 30.6 15.5 39.4 14.6 38.4 29.8 29.7 30.7 30.6" style="fill:#58595b"/><polygon points="5 25.5 5 25.5 8.7 9.1 8.1 8.8 8.9 8.3 9.8 8.8 9.8 8.8 18.8 14 22.6 43.7 21.7 43.8 17.9 14.7 9.6 9.8 5.9 25.7 5.9 25.7 6.4 28.1 16.2 38.8 15.5 39.4 5.7 28.6 5.7 28.6 5 25.5" style="fill:#58595b"/><polygon points="2.7 35.3 6.3 33.5 3.5 30.7 2.5 33.7 2.7 35.3" style="fill:#282323"/><path d="M1.1,36.2l5.5,9.5,3.1-1.8a2.73,2.73,0,0,0,1.1-2.5,8.32,8.32,0,0,0-3.9-6.7,2.91,2.91,0,0,0-2.8-.3A33.08,33.08,0,0,1,1.1,36.2Z" style="fill:url(#c)"/><path d="M0,38.7a8.32,8.32,0,0,0,3.9,6.7c2.1,1.2,3.9.2,3.9-2.2a8.47,8.47,0,0,0-3.9-6.7C1.8,35.2,0,36.2,0,38.7Z" style="fill:#302c2c"/><path d="M1.8,39.7a4.88,4.88,0,0,0,2.1,3.7c1.1.7,2.1.1,2.1-1.2a4.88,4.88,0,0,0-2.1-3.7C2.7,37.8,1.8,38.4,1.8,39.7Z" style="fill:#282323"/><path d="M3.1,40.5A2.24,2.24,0,0,0,3.9,42c.5.3.8.1.8-.5A2.24,2.24,0,0,0,3.9,40C3.4,39.7,3.1,39.9,3.1,40.5Z" style="fill:#353131"/><path d="M2.5,33.7V30.4L14.9,41.9l6.4,3.7v4.1L8.4,42.2l-.5-1.6a7.76,7.76,0,0,0-3.6-5.8S3.1,34.1,2.5,33.7Z" style="fill:#ddb300"/><polygon points="8.4 42.2 21.3 49.6 21.3 48.3 7.9 40.6 8.4 42.2" style="fill:#c6a000"/><path d="M18,45.9l5.5,9.5,3.1-1.8a2.73,2.73,0,0,0,1.1-2.5,8.32,8.32,0,0,0-3.9-6.7,2.91,2.91,0,0,0-2.8-.3A33.08,33.08,0,0,1,18,45.9Z" style="fill:url(#d)"/><path d="M16.9,48.5a8.32,8.32,0,0,0,3.9,6.7c2.1,1.2,3.9.2,3.9-2.2a8.32,8.32,0,0,0-3.9-6.7C18.6,45,16.9,46,16.9,48.5Z" style="fill:#302c2c"/><path d="M18.7,49.5a4.88,4.88,0,0,0,2.1,3.7c1.2.7,2.1.1,2.1-1.2a4.88,4.88,0,0,0-2.1-3.7C19.6,47.6,18.7,48.1,18.7,49.5Z" style="fill:#282323"/><path d="M19.9,50.2a2.24,2.24,0,0,0,.8,1.5c.5.3.8.1.8-.5a2.24,2.24,0,0,0-.8-1.5A.52.52,0,0,0,19.9,50.2Z" style="fill:#353131"/><polygon points="15.5 40.8 3.4 27.5 2.5 30.4 14.9 41.8 15.5 42.2 15.5 40.8" style="fill:url(#e)"/><path d="M22,46.1a4.44,4.44,0,0,0-1.1-.8A2.85,2.85,0,0,0,18,45v-.2a9.9,9.9,0,0,1,4.4-.8C24,44,37,37.3,37,37.3v.2Z" style="fill:#c6a000"/><path d="M22,46a4.44,4.44,0,0,0-1.1-.8,2.85,2.85,0,0,0-2.9-.3s14.3-8.2,15-8.7a3,3,0,0,1,3,.3,7.63,7.63,0,0,1,1.1.8Z" style="fill:url(#f)"/><polygon points="17 45.8 18 45.1 18 44.9 16.8 45.7 17 45.8" style="fill:#c6a000"/><polygon points="4.2 26 4.2 26 8.1 8.8 9 9.3 9 9.3 18 14.5 21.8 44.3 20.9 44.3 17.2 15.2 8.8 10.4 5.1 26.3 5.1 26.3 5.7 28.6 15.5 39.4 15.5 40.8 4.9 29.1 4.9 29.1 4.2 26" style="fill:#302d2e"/><path d="M22.3,42.9A4.85,4.85,0,0,1,24.5,44l-.6-4.7s-1.1-1.7-1.4-1.6c-.1,0-1.4.8-1.4.8l.2,1.2Z" style="fill:url(#g)"/><polygon points="35.6 37.5 22.4 45.2 21.8 40.6 35.1 32.8 35.6 37.5" style="fill:url(#h)"/><path d="M20.2,44.1a4.85,4.85,0,0,1,2.2,1.1l-.6-4.7s-1.8-2.8-1.5-.9A17.53,17.53,0,0,1,20.2,44.1Z" style="fill:#302d2e"/><polygon points="14.9 41.8 15.5 42.2 15.5 40.8 14.2 39.4 14.9 41.8" style="fill:url(#i)"/><polygon points="4.9 29.1 4.4 26.9 3.4 27.5 4.9 29.1" style="fill:#fff140"/><path d="M8.1,8.8,18,14.5,33.2,5.7,23.3,0ZM18,13.2,10.4,8.8,23.3,1.4l7.6,4.4Z" style="fill:#6d6e70"/><polygon points="18.3 15.6 33.3 6.9 33.2 5.7 18.2 14.4 18.3 15.6" style="fill:#58595b"/><polygon points="11.5 9.4 23.3 2.6 23.3 1.4 10.4 8.8 11.5 9.4" style="fill:#58595b"/><path d="M10.8,9.2,17.4,13a2.56,2.56,0,0,0,2.1,0L30.7,6.5a.63.63,0,0,0,0-1.2L24.1,1.5a2.56,2.56,0,0,0-2.1,0L10.8,8C10.2,8.4,10.2,8.9,10.8,9.2Zm6.2-4L19.1,4l3.7,2.1L20.9,7.2,17.2,5.1Zm3.5,2.2L18.6,8.5,14.9,6.4l1.9-1.1Zm-1-3.7,1.9-1.1,3.7,2.1L23.2,5.8ZM25.4,5l3.4,1.9L26.9,8,23.5,6.1Zm1.1,3.2L24.6,9.3,21.2,7.4l1.9-1.1ZM24.2,9.5l-1.9,1.1L18.9,8.7l1.9-1.1Zm-2.3,1.4L20,12l-3.4-1.9L18.5,9ZM16.3,9.8,12.6,7.7l2.2-1.3-.3.2,3.7,2.1Zm10.4-6-1.3.7L21.7,2.4h0l.9-.5a1.38,1.38,0,0,1,.9,0ZM30,6.2l-.8.5L25.8,4.8l1.3-.7L30,5.8A.21.21,0,0,1,30,6.2ZM15,11l1.3-.7,3.4,1.9-.9.5a1.38,1.38,0,0,1-.9,0ZM11.4,8.4l.8-.5L15.9,10l-1.3.7.3.2L11.3,8.8A.25.25,0,0,1,11.4,8.4Z" style="fill:#302d2e"/><path d="M10.8,8.9l6.6,3.8a2.56,2.56,0,0,0,2.1,0L30.7,6.2a.63.63,0,0,0,0-1.2L24.1,1.2a2.56,2.56,0,0,0-2.1,0L10.8,7.7C10.2,8.1,10.2,8.6,10.8,8.9Zm6.2-4,2.1-1.2,3.7,2.1L20.9,6.9,17.2,4.8Zm3.5,2.2L18.6,8.2,14.9,6.1,16.8,5Zm-1-3.7,1.9-1.1,3.7,2.1L23.2,5.5Zm5.9,1.3,3.4,1.9L26.9,7.7,23.5,5.8Zm1.1,3.2L24.6,9,21.2,7.1,23.1,6ZM24.2,9.2l-1.9,1.1L18.9,8.4l1.9-1.1Zm-2.3,1.4L20,11.7,16.6,9.8l1.9-1.1ZM16.3,9.5,12.6,7.4l2.2-1.3-.3.2,3.7,2.1Zm10.4-6-1.3.7L21.7,2.1h0l.9-.5a1.38,1.38,0,0,1,.9,0ZM30,5.9l-.8.5L25.8,4.5l1.3-.7L30,5.5C30.2,5.5,30.2,5.8,30,5.9ZM15,10.7l1.3-.7,3.4,1.9-.8.5a1.38,1.38,0,0,1-.9,0ZM11.4,8.1l.8-.5,3.7,2.1-1.3.7.3.2L11.3,8.5A.25.25,0,0,1,11.4,8.1Z" style="fill:#6d6e70"/><path d="M6.3,27.3,15.5,38l12.7-7.4V26.8a2.69,2.69,0,0,0-1.4-2.4L19,19.9l-1.2.2-.1-.9L6,26Z" style="fill:#fff140"/><path d="M6.4,28.1l9,9.9V34.2A2.69,2.69,0,0,0,14,31.8L6.2,27.3Z" style="fill:#ddb300"/><polygon points="9.5 26.5 15.5 29.9 15.5 28.1 8.9 24.4 9.5 26.5" style="fill:#302d2e"/><path d="M17.1,29.9V28.1H15.4v1.8A1.72,1.72,0,0,0,17.1,29.9Z" style="fill:url(#j)"/><polygon points="7.5 18.9 9.5 26.5 10.9 25.5 8.2 15.7 7.5 18.9" style="fill:#302d2e"/><path d="M16.4,14.7l1.8,6.6-7.3,4.2L8.3,15.7c3-3.1,4.6-3,4.6-3Z" style="fill:#58595b"/><polygon points="23 26.5 17.1 29.9 17.1 28.1 23 24.8 23 26.5" style="fill:#58595b"/><path d="M23,26.5c.1-.1.2-.2.2-.3V24.5l-.2.3Z" style="fill:#828282"/><path d="M17.1,28.1l5.8-3.4c.3-.2.3-.6,0-.7l-4.8-2.8a12.34,12.34,0,0,0-7.3,4.2L15.4,28A1.52,1.52,0,0,0,17.1,28.1Z" style="fill:#6d6e70"/><polygon points="27 37.5 31 35.2 29.7 25.2 25.7 27.5 27 37.5" style="fill:url(#k)"/><polygon points="23.3 26.1 27.2 23.8 29.7 25.2 25.7 27.5 23.3 26.1" style="fill:#6d6e70"/><polygon points="27 37.5 24.9 38.7 23.3 26.1 25.7 27.5 27 37.5" style="fill:#302d2e"/><polygon points="25.9 26.6 28.1 25.3 27.9 24.2 25.8 25.4 25.9 26.6" style="fill:#58595b"/><polygon points="24.5 24.7 26.6 23.4 27.9 24.2 25.8 25.4 24.5 24.7" style="fill:#58595b"/><polygon points="25.9 26.6 24.6 25.8 24.5 24.7 25.8 25.4 25.9 26.6" style="fill:#302d2e"/><path d="M27.5,24.1a1,1,0,0,0,.6-.5c.2-.3,1.4-1.7,1.4-1.7L22,23.4a16.23,16.23,0,0,0,1.6,1.2c.1.1.3.1.6.2A6.71,6.71,0,0,0,27.5,24.1Z" style="fill:url(#l)"/><path d="M28.6,22.6c1.1-.7,2-1.7,0-1.9a8.68,8.68,0,0,0-5.4,1.2c-1.4.8-2,1.7-.1,1.9A11.47,11.47,0,0,0,28.6,22.6Z" style="fill:#58595b"/><polygon points="34.6 40.5 36.2 39.6 36.2 18 34.6 18.9 34.6 40.5" style="fill:#302d2e"/><polygon points="32.2 20.3 35.4 18.5 35.4 19.3 32.2 21.2 32.2 20.3" style="fill:#404041"/><polygon points="32.2 24.5 35.5 22.6 35.5 21.1 32.2 23 32.2 24.5" style="fill:#404041"/><polygon points="32.2 23 32.2 21.9 34.6 20.6 35.5 21.1 32.2 23" style="fill:#6d6e70"/><polygon points="37.4 16.2 35.8 15.2 37.7 14.1 39.3 15.1 37.4 16.2" style="fill:#6d6e70"/><polygon points="28.2 43 29.8 43.9 29.8 23.4 28.2 22.5 28.2 43" style="fill:#302d2e"/><polygon points="27.5 22.9 29.1 23.9 29.1 21 27.5 20.1 27.5 22.9" style="fill:#302d2e"/><polygon points="29.3 19 31 19.9 31 19 29.3 18 29.3 19" style="fill:#302d2e"/><rect x="39.8" y="27.43" width="1.6" height="11.7" style="fill:#231f20"/><polygon points="34.3 40.7 34.1 40.8 34.1 19.3 34.3 19.1 34.3 40.7" style="fill:#ffe471"/><polygon points="36.2 15.9 37.4 15.2 37.4 16.2 38.6 15.5 39.3 15.1 39.3 17.9 38.6 18.3 38.6 38.2 36.6 39.4 36.2 39.6 36.2 15.9" style="fill:url(#m)"/><polygon points="29.8 20.6 31 19.9 31 19 32.2 18.2 32.2 41.9 31.8 42.2 31.8 42.2 31.8 42.2 31 42.6 31 42.6 29.8 43.3 29.8 23.4 29.1 23.9 29.1 21 29.8 20.6" style="fill:url(#n)"/><path d="M26.6,33.7l12.7-7.4a1,1,0,0,1,.9-.1c.2.1,1.2.7,1.2.7l-1.7.5s-12.8,7.7-12.8,8l-.3,15.3.2.9a13.09,13.09,0,0,0-1.3-.7.78.78,0,0,1-.3-.7V35.7A3.52,3.52,0,0,1,26.6,33.7Z" style="fill:url(#o)"/><polygon points="29.8 49.7 38.6 44.7 38.6 38.2 29.8 43.3 29.8 49.7" style="fill:#58595b"/><path d="M33.6,44.8l1.3-.7a1.52,1.52,0,0,0,.6-1.1V41.9c0-.4-.3-.6-.6-.4l-1.3.7a1.52,1.52,0,0,0-.6,1.1v1.1C33,44.8,33.2,45,33.6,44.8Z" style="fill:#302d2e"/><polygon points="29.8 48.6 31 48 31 43.7 29.8 44.3 29.8 48.6" style="fill:#302d2e"/><polygon points="37.4 44.2 38.6 43.5 38.6 39.2 37.4 39.9 37.4 44.2" style="fill:#302d2e"/><polygon points="32.2 20.3 36.2 18 36.2 15.9 32.2 18.2 32.2 20.3" style="fill:#58595b"/><polygon points="35.9 37.2 36.3 37.4 36.3 30.3 35.9 30.5 35.9 37.2" style="fill:#231f20"/><polygon points="33.6 38.6 34 38.8 34 31.7 33.6 31.9 33.6 38.6" style="fill:#231f20"/><polygon points="31.3 39.9 31.7 40.1 31.7 33 31.3 33.2 31.3 39.9" style="fill:#231f20"/><polygon points="29 41.2 29.4 41.4 29.4 34.3 29 34.5 29 41.2" style="fill:#231f20"/><polygon points="38.2 35.9 38.6 36.1 38.6 29 38.2 29.2 38.2 35.9" style="fill:#231f20"/><polygon points="36.7 34.9 38.2 34 38.6 34.2 36.7 35.3 36.7 34.9" style="fill:#6d6e70"/><polygon points="36.7 36.8 38.2 35.9 38.6 36.1 36.7 37.2 36.7 36.8" style="fill:#6d6e70"/><polygon points="39 33.5 40.7 32.6 41 32.8 39 34 39 33.5" style="fill:#6d6e70"/><polygon points="39 35.4 40.7 34.5 41 34.7 39 35.9 39 35.4" style="fill:#6d6e70"/><polygon points="34.4 36.2 35.9 35.3 36.3 35.5 34.4 36.6 34.4 36.2" style="fill:#6d6e70"/><polygon points="34.4 38.1 35.9 37.2 36.3 37.4 34.4 38.5 34.4 38.1" style="fill:#6d6e70"/><polygon points="32.1 37.5 33.6 36.7 34 36.9 32.1 38 32.1 37.5" style="fill:#6d6e70"/><polygon points="32.1 39.4 33.6 38.6 34 38.8 32.1 39.9 32.1 39.4" style="fill:#6d6e70"/><polygon points="29.8 38.9 31.3 38 31.7 38.2 29.8 39.3 29.8 38.9" style="fill:#6d6e70"/><polygon points="29.8 40.8 31.3 39.9 31.7 40.1 29.8 41.2 29.8 40.8" style="fill:#6d6e70"/><polygon points="27.3 40.3 29 39.3 29.4 39.5 27.3 40.7 27.3 40.3" style="fill:#6d6e70"/><polygon points="27.3 42.2 29 41.2 29.4 41.4 27.3 42.6 27.3 42.2" style="fill:#6d6e70"/><path d="M26.6,36.4V51c0,.7.5,1,1.2.6l12.7-7.4a2.54,2.54,0,0,0,1.2-2V27.7c0-.7-.5-1-1.2-.6L27.8,34.5A2.47,2.47,0,0,0,26.6,36.4Zm.7-.4a1,1,0,0,1,.5-.8l12.7-7.4c.3-.2.5,0,.5.2V42.7a1,1,0,0,1-.5.8L27.8,50.9c-.3.2-.5,0-.5-.2Z" style="fill:#404041"/><polygon points="27.3 41.2 41 33.3 41 32.8 27.3 40.7 27.3 41.2" style="fill:#404041"/><polygon points="39 36.3 39 28.7 38.6 29 38.6 36.6 39 36.3" style="fill:#404041"/><polygon points="34.4 39 34.4 31.4 34 31.7 34 39.3 34.4 39" style="fill:#404041"/><polygon points="36.7 37.7 36.7 30.1 36.3 30.3 36.3 37.9 36.7 37.7" style="fill:#404041"/><polygon points="29.8 41.7 29.8 34.1 29.4 34.3 29.4 41.9 29.8 41.7" style="fill:#404041"/><polygon points="32.1 40.3 32.1 32.7 31.7 33 31.7 40.6 32.1 40.3" style="fill:#404041"/><polygon points="27.3 43.1 41 35.2 41 34.7 27.3 42.6 27.3 43.1" style="fill:#404041"/><path d="M29.4,51.2a1.94,1.94,0,0,0,.9,1.7l-2.5,1.4a1.94,1.94,0,0,1-.9-1.7Z" style="fill:#c6a000"/><path d="M42.4,61.2v-.4a8,8,0,0,0-2.2-2.2l-9.5-5.5-2.5,1-.4.2L37.6,60A15.09,15.09,0,0,0,42.4,61.2Z" style="fill:#c6a000"/><polygon points="27.3 43.8 27.3 43.9 29.4 42.6 29.4 51.2 27 52.7 27 44.3 27 44.1 27 43.6 27.3 43.8" style="fill:#c6a000"/><path d="M42.4,60.8a4.55,4.55,0,0,0-2.2-2.6l-9.5-5.5-2.5,1.4,9.5,5.5A14.2,14.2,0,0,0,42.4,60.8Z" style="fill:#fff140"/><path d="M29.8,51a1.94,1.94,0,0,0,.9,1.7l-2.5,1.4a1.94,1.94,0,0,1-.9-1.7Z" style="fill:url(#p)"/><polygon points="27.3 52.4 29.8 51 29.8 42.4 27.3 43.8 27.3 52.4" style="fill:#fff140"/><polygon points="27.3 43.8 27 43.6 29.4 42.2 29.8 42.4 27.3 43.8" style="fill:#fff140"/><path d="M40.7,44.7a1.94,1.94,0,0,0,.9,1.7l-2.5,1.4a1.94,1.94,0,0,1-.9-1.7Z" style="fill:#c6a000"/><path d="M53.6,54.7v-.4a8,8,0,0,0-2.2-2.2l-9.5-5.5-2.5,1-.4.2,9.8,5.7A15.09,15.09,0,0,0,53.6,54.7Z" style="fill:#c6a000"/><polygon points="38.6 37.3 38.6 37.4 40.7 36.2 40.7 44.7 38.2 46.2 38.2 37.8 38.2 37.6 38.2 37.1 38.6 37.3" style="fill:#c6a000"/><path d="M53.6,54.3a4.55,4.55,0,0,0-2.2-2.6l-9.5-5.5-2.5,1.4,9.5,5.5A14.2,14.2,0,0,0,53.6,54.3Z" style="fill:#fff140"/><path d="M41,44.5a1.94,1.94,0,0,0,.9,1.7l-2.5,1.4a1.94,1.94,0,0,1-.9-1.7Z" style="fill:url(#q)"/><polygon points="38.6 45.9 41 44.5 41 35.9 38.6 37.3 38.6 45.9" style="fill:#fff140"/><polygon points="38.6 37.3 38.2 37.1 40.7 35.7 41 35.9 38.6 37.3" style="fill:#fff140"/><polygon points="29.1 21 27.5 20.1 29.3 19 31 19.9 29.1 21" style="fill:#6d6e70"/><polygon points="31 19 29.3 18 35.8 14.3 37.4 15.2 31 19" style="fill:#6d6e70"/><polygon points="17.6 18.8 20 37.5 20.7 35.5 18.4 17.7 17.6 18.8" style="fill:#302d2e"/><polygon points="18.6 18.8 21 37.5 21.6 36.3 19.3 17.6 18.6 18.8" style="fill:#58595b"/><path d="M18.7,19.8l.5-1.1a1,1,0,0,0,.4-.8l.7-.9a9.22,9.22,0,0,1-.8-.5h-.3l-1,.6a1,1,0,0,0-.4.8V19c0,.2.1.3.2.3S18.7,19.8,18.7,19.8Z" style="fill:#302d2e"/><path d="M19,19.8l1-.6a1,1,0,0,0,.4-.8V17.3c0-.3-.2-.5-.4-.3l-1,.6a1,1,0,0,0-.4.8v1.1C18.6,19.8,18.8,20,19,19.8Z" style="fill:#ff541f"/><path d="M33.1,11.5l.5-1.1a1,1,0,0,0,.4-.8l.7-.9a9.22,9.22,0,0,1-.8-.5h-.3l-1,.6a1,1,0,0,0-.4.8v1.1c0,.2.1.3.2.3S33.1,11.5,33.1,11.5Z" style="fill:#302d2e"/><path d="M33.4,11.5l1-.6a1,1,0,0,0,.4-.8V9c0-.3-.2-.5-.4-.3l-1,.6a1,1,0,0,0-.4.8v1.1C33,11.5,33.1,11.7,33.4,11.5Z" style="fill:#ff541f"/><path d="M12.5,30.4a2,2,0,0,0,1.5,0,.42.42,0,0,0,0-.8,2,2,0,0,0-1.5,0C12.1,29.8,12.1,30.1,12.5,30.4Z" style="fill:url(#r)"/><polygon points="13.1 30 13.4 30 12.6 24.9 12.3 25 13.1 30" style="fill:url(#s)"/><path d="M11.9,24.9a.5.5,0,1,0,.5-.5A.54.54,0,0,0,11.9,24.9Z" style="fill:url(#t)"/><polygon points="33.8 63.4 31.2 61.9 52 50.1 54.5 51.6 33.8 63.4" style="fill:url(#u)"/><polygon points="33.8 63.4 33.8 63.9 54.5 52.1 54.5 51.6 33.8 63.4" style="fill:url(#v)"/><polygon points="43.2 56.5 45.7 55.1 45.7 56.6 43.2 58 43.2 56.5" style="fill:#83765f"/><polygon points="43.2 56.5 43.2 58 40.7 56.5 40.7 55 43.2 56.5" style="fill:#a5937f"/><polygon points="26.8 59.3 24.2 57.8 44.9 46.1 47.4 47.5 26.8 59.3" style="fill:url(#w)"/><polygon points="26.8 59.3 26.8 59.9 47.4 48.1 47.4 47.5 26.8 59.3" style="fill:url(#x)"/><polygon points="26.8 57.8 29.3 56.4 29.3 57.9 26.8 59.3 26.8 57.8" style="fill:#77654d"/><polygon points="26.8 57.8 26.8 59.3 24.2 57.8 24.2 56.4 26.8 57.8" style="fill:#a5937f"/><polygon points="44.9 47.5 47.4 46.1 47.4 47.5 44.9 49 44.9 47.5" style="fill:#83765f"/><polygon points="44.9 47.5 44.9 49 42.4 47.5 42.4 46 44.9 47.5" style="fill:#a5937f"/><polygon points="36.2 52.5 38.7 51 38.7 52.5 36.2 53.9 36.2 52.5" style="fill:#83765f"/><polygon points="36.2 52.5 36.2 53.9 33.7 52.5 33.7 51 36.2 52.5" style="fill:#a5937f"/><polygon points="40.8 65.4 43.3 64 26.7 54.4 24.2 55.8 40.8 65.4" style="fill:url(#y)"/><polygon points="40.8 65.4 40.8 65.9 24.2 56.4 24.2 55.8 40.8 65.4" style="fill:#b29970"/><polygon points="59 55 61.5 53.6 44.8 44 42.3 45.5 59 55" style="fill:url(#z)"/><polygon points="59 55 59 55.6 42.3 46 42.3 45.5 59 55" style="fill:#8e7b6b"/><polygon points="50.3 60 52.8 58.6 36.1 49 33.6 50.5 50.3 60" style="fill:url(#aa)"/><polygon points="50.3 60 50.3 60.6 33.6 51 33.6 50.5 50.3 60" style="fill:#8e7b6b"/><polygon points="37.3 62.8 34.8 61.4 55.5 49.6 58 51 37.3 62.8" style="fill:url(#ab)"/><polygon points="33.8 60.8 31.3 59.4 52 47.6 54.5 49 33.8 60.8" style="fill:url(#ac)"/><polygon points="33.8 60.8 33.8 61.3 54.5 49.6 54.5 49 33.8 60.8" style="fill:#b29970"/><polygon points="30.3 58.8 27.8 57.3 48.4 45.6 50.9 47 30.3 58.8" style="fill:url(#ad)"/><polygon points="30.3 58.8 30.3 59.3 50.9 47.5 50.9 47 30.3 58.8" style="fill:#b29970"/><polygon points="26.7 56.7 24.2 55.3 44.9 43.5 47.4 44.9 26.7 56.7" style="fill:url(#ae)"/><polygon points="26.7 56.7 24.2 55.3 24.2 55.8 26.7 57.3 26.7 56.7" style="fill:#af9b77"/><polygon points="26.7 56.7 26.7 57.3 47.4 45.5 47.4 44.9 26.7 56.7" style="fill:#b29970"/><polygon points="34.6 48.8 41.2 45 46.5 45 53.1 48.8 46.5 52.6 41.2 52.6 34.6 48.8" style="fill:#bbbdbf"/><polygon points="53.1 48.8 46.5 52.6 46.5 45 53.1 41.2 53.1 48.8" style="fill:url(#af)"/><polygon points="53.1 41.2 46.5 45 39.9 41.2 46.5 37.4 53.1 41.2" style="fill:url(#ag)"/><polygon points="39.9 48.8 46.5 52.6 46.5 45 39.9 41.2 39.9 48.8" style="fill:url(#ah)"/><polygon points="40.3 47.7 43 49.8 43.5 46.4 40.8 44.4 40.3 47.7" style="fill:#bbbdbf"/><polygon points="42.9 46.8 43.1 46.9 43.2 46.5 43 46.4 42.9 46.8" style="fill:#404041"/><polygon points="42.5 46.4 42.7 46.6 42.7 46.1 42.5 46 42.5 46.4" style="fill:#404041"/><polygon points="42 46.1 42.4 46.4 42.4 46 42 45.7 42 46.1" style="fill:#404041"/><polygon points="42.9 47.4 43 47.5 43.1 47.2 43 47.1 42.9 47.4" style="fill:#404041"/><polygon points="42.7 47.3 42.9 47.4 42.9 47 42.8 46.9 42.7 47.3" style="fill:#404041"/><polygon points="42.6 47.1 42.7 47.2 42.7 46.9 42.6 46.8 42.6 47.1" style="fill:#404041"/><polygon points="42.3 46.9 42.4 47 42.4 46.7 42.3 46.6 42.3 46.9" style="fill:#404041"/><polygon points="42.1 46.8 42.2 46.8 42.3 46.5 42.1 46.4 42.1 46.8" style="fill:#404041"/><polygon points="41.9 46.6 42 46.7 42.1 46.4 42 46.3 41.9 46.6" style="fill:#404041"/><polygon points="41.8 46.5 41.9 46.6 41.9 46.3 41.8 46.2 41.8 46.5" style="fill:#404041"/><polygon points="42.9 47.9 43 47.9 43 47.6 42.9 47.5 42.9 47.9" style="fill:#404041"/><polygon points="42.7 47.7 42.8 47.8 42.8 47.5 42.7 47.4 42.7 47.7" style="fill:#404041"/><polygon points="42.4 47.5 42.5 47.6 42.6 47.3 42.4 47.2 42.4 47.5" style="fill:#404041"/><polygon points="42.2 47.4 42.3 47.4 42.4 47.1 42.3 47 42.2 47.4" style="fill:#404041"/><polygon points="42 47.2 42.2 47.3 42.2 47 42.1 46.9 42 47.2" style="fill:#404041"/><polygon points="41.9 47.1 42 47.2 42 46.8 41.9 46.8 41.9 47.1" style="fill:#404041"/><polygon points="41.5 46.8 41.6 46.9 41.7 46.6 41.6 46.5 41.5 46.8" style="fill:#404041"/><polygon points="41.4 46.7 41.5 46.8 41.5 46.5 41.4 46.4 41.4 46.7" style="fill:#404041"/><polygon points="41.2 46.6 41.3 46.6 41.3 46.3 41.2 46.2 41.2 46.6" style="fill:#404041"/><polygon points="41 46.4 41.1 46.5 41.2 46.2 41 46.1 41 46.4" style="fill:#404041"/><polygon points="40.8 46.3 41 46.4 41 46 40.9 46 40.8 46.3" style="fill:#404041"/><polygon points="42.8 48.3 42.9 48.4 43 48.1 42.9 48 42.8 48.3" style="fill:#404041"/><polygon points="42.6 48.2 42.7 48.3 42.8 47.9 42.7 47.8 42.6 48.2" style="fill:#404041"/><polygon points="42.5 48 42.6 48.1 42.6 47.8 42.5 47.7 42.5 48" style="fill:#404041"/><polygon points="42.2 47.8 42.3 47.9 42.3 47.6 42.2 47.5 42.2 47.8" style="fill:#404041"/><polygon points="42 47.7 42.1 47.7 42.1 47.4 42 47.3 42 47.7" style="fill:#404041"/><polygon points="41.8 47.5 41.9 47.6 42 47.3 41.9 47.2 41.8 47.5" style="fill:#404041"/><polygon points="41.7 47.4 41.8 47.5 41.8 47.2 41.7 47.1 41.7 47.4" style="fill:#404041"/><polygon points="41.5 47.3 41.6 47.4 41.6 47 41.5 46.9 41.5 47.3" style="fill:#404041"/><polygon points="41.3 47.1 41.4 47.2 41.5 46.9 41.3 46.8 41.3 47.1" style="fill:#404041"/><polygon points="40.9 46.9 41.1 46.9 41.1 46.6 41 46.5 40.9 46.9" style="fill:#404041"/><polygon points="40.8 46.7 40.9 46.8 40.9 46.5 40.8 46.4 40.8 46.7" style="fill:#404041"/><polygon points="42.7 49.2 42.8 49.3 42.8 49 42.7 48.9 42.7 49.2" style="fill:#404041"/><polygon points="42.5 49.1 42.6 49.2 42.7 48.9 42.5 48.8 42.5 49.1" style="fill:#404041"/><polygon points="42.3 49 42.4 49.1 42.5 48.7 42.4 48.6 42.3 49" style="fill:#404041"/><polygon points="42 48.7 42.1 48.8 42.2 48.5 42.1 48.4 42 48.7" style="fill:#404041"/><polygon points="41.8 48.6 42 48.7 42 48.4 41.9 48.3 41.8 48.6" style="fill:#404041"/><polygon points="41.7 48.5 41.8 48.6 41.8 48.2 41.7 48.1 41.7 48.5" style="fill:#404041"/><polygon points="41.5 48.4 41.6 48.4 41.7 48.1 41.6 48 41.5 48.4" style="fill:#404041"/><polygon points="41.3 48.2 41.5 48.3 41.5 48 41.4 47.9 41.3 48.2" style="fill:#404041"/><polygon points="42.7 48.8 42.9 48.8 42.9 48.5 42.8 48.4 42.7 48.8" style="fill:#404041"/><polygon points="42.6 48.6 42.7 48.7 42.7 48.4 42.6 48.3 42.6 48.6" style="fill:#404041"/><polygon points="42.3 48.4 42.4 48.5 42.4 48.2 42.3 48.1 42.3 48.4" style="fill:#404041"/><polygon points="42.1 48.3 42.2 48.3 42.3 48 42.1 47.9 42.1 48.3" style="fill:#404041"/><polygon points="41.9 48.1 42 48.2 42.1 47.9 42 47.8 41.9 48.1" style="fill:#404041"/><polygon points="41.7 48 41.9 48.1 41.9 47.7 41.8 47.7 41.7 48" style="fill:#404041"/><polygon points="41.4 47.7 41.5 47.8 41.6 47.5 41.5 47.4 41.4 47.7" style="fill:#404041"/><polygon points="41.2 47.6 41.4 47.7 41.4 47.4 41.3 47.3 41.2 47.6" style="fill:#404041"/><polygon points="41.1 47.5 41.2 47.5 41.2 47.2 41.1 47.1 41.1 47.5" style="fill:#404041"/><polygon points="40.7 47.2 40.8 47.3 40.9 46.9 40.8 46.9 40.7 47.2" style="fill:#404041"/><polygon points="41.8 45.9 41.9 46 41.9 45.7 41.8 45.6 41.8 45.9" style="fill:#404041"/><polygon points="41 45.3 41.7 45.9 41.8 45.5 41.1 45 41 45.3" style="fill:#404041"/><polygon points="50.4 42.7 49.2 43.4 46.5 41.9 47.7 41.2 50.4 42.7" style="fill:#bbbdbf"/><polygon points="42.6 39.6 43.8 38.9 46.5 40.5 45.3 41.2 42.6 39.6" style="fill:#bbbdbf"/><polygon points="45.3 41.2 46.5 40.5 49.2 38.9 50.4 39.6 47.7 41.2 46.5 41.9 43.8 43.4 42.6 42.7 45.3 41.2" style="fill:#c6c6c6"/><polygon points="43.3 43.1 49.8 39.3 49.8 39.2 43.2 43.1 43.3 43.1" style="fill:#d0d2d3"/><polygon points="42.6 50.3 42.6 42.7 43.8 43.4 43.8 51 42.6 50.3" style="fill:#bbbdbf"/><path d="M47.4,50v1.4c0,.1.1.2.2.1l1.2-.7a.52.52,0,0,0,.2-.4V49c0-.1-.1-.2-.2-.1l-1.2.7A.52.52,0,0,0,47.4,50Zm.1-.1a.35.35,0,0,1,.1-.2l1.2-.7c.1,0,.1,0,.1.1v1.4a.35.35,0,0,1-.1.2l-1.2.7c-.1,0-.1,0-.1-.1Z" style="fill:#af9b7b"/><polygon points="28 52.6 34.6 48.8 39.9 48.8 46.5 52.6 39.9 56.4 34.6 56.4 28 52.6" style="fill:#bbbdbf"/><polygon points="46.5 52.6 39.9 56.4 39.9 48.8 46.5 45 46.5 52.6" style="fill:url(#ai)"/><polygon points="46.5 45 39.9 48.8 33.4 45 39.9 41.2 46.5 45" style="fill:url(#aj)"/><polygon points="33.4 52.6 39.9 56.4 39.9 48.8 33.4 45 33.4 52.6" style="fill:url(#ak)"/><g style="opacity:0.6600000262260437"><polygon points="44.1 46.8 46.2 45.5 46.2 46.6 44.1 47.8 44.1 46.8" style="fill:#fff"/><polygon points="45.8 46.1 45.9 46 45.9 46.5 45.8 46.6 45.8 46.1" style="fill:#404041"/><polygon points="45.6 46.2 45.7 46.1 45.7 46.6 45.6 46.7 45.6 46.2" style="fill:#404041"/><polygon points="45.4 46.3 45.5 46.2 45.5 46.7 45.4 46.8 45.4 46.3" style="fill:#404041"/><polygon points="44.9 46.6 45 46.5 45 47.1 44.9 47.1 44.9 46.6" style="fill:#404041"/><polygon points="45.2 46.4 45.4 46.3 45.4 46.8 45.2 46.9 45.2 46.4" style="fill:#404041"/><polygon points="45.1 46.5 45.2 46.4 45.2 46.9 45.1 47 45.1 46.5" style="fill:#404041"/><polygon points="44.4 46.8 44.6 46.8 44.6 47.3 44.4 47.4 44.4 46.8" style="fill:#404041"/><polygon points="44.3 46.9 44.4 46.9 44.4 47.4 44.3 47.5 44.3 46.9" style="fill:#404041"/></g><polygon points="33.7 51.5 36.4 53.6 36.9 50.2 34.2 48.2 33.7 51.5" style="fill:#bbbdbf"/><polygon points="36.3 50.6 36.5 50.8 36.6 50.3 36.4 50.2 36.3 50.6" style="fill:#404041"/><polygon points="35.9 50.2 36.1 50.4 36.1 49.9 35.9 49.8 35.9 50.2" style="fill:#404041"/><polygon points="35.4 49.9 35.8 50.2 35.8 49.8 35.4 49.6 35.4 49.9" style="fill:#404041"/><polygon points="36.3 51.2 36.5 51.3 36.5 51 36.4 50.9 36.3 51.2" style="fill:#404041"/><polygon points="36.2 51.1 36.3 51.2 36.3 50.8 36.2 50.7 36.2 51.1" style="fill:#404041"/><polygon points="36 50.9 36.1 51 36.1 50.7 36 50.6 36 50.9" style="fill:#404041"/><polygon points="35.7 50.7 35.8 50.8 35.9 50.5 35.7 50.4 35.7 50.7" style="fill:#404041"/><polygon points="35.5 50.6 35.6 50.7 35.7 50.3 35.6 50.2 35.5 50.6" style="fill:#404041"/><polygon points="35.3 50.4 35.5 50.5 35.5 50.2 35.4 50.1 35.3 50.4" style="fill:#404041"/><polygon points="35.2 50.3 35.3 50.4 35.4 50.1 35.2 50 35.2 50.3" style="fill:#404041"/><polygon points="36.3 51.7 36.4 51.8 36.4 51.4 36.3 51.3 36.3 51.7" style="fill:#404041"/><polygon points="36.1 51.5 36.2 51.6 36.3 51.3 36.1 51.2 36.1 51.5" style="fill:#404041"/><polygon points="35.8 51.3 35.9 51.4 36 51.1 35.9 51 35.8 51.3" style="fill:#404041"/><polygon points="35.6 51.2 35.7 51.3 35.8 50.9 35.7 50.8 35.6 51.2" style="fill:#404041"/><polygon points="35.4 51 35.6 51.1 35.6 50.8 35.5 50.7 35.4 51" style="fill:#404041"/><polygon points="35.3 50.9 35.4 51 35.4 50.7 35.3 50.6 35.3 50.9" style="fill:#404041"/><polygon points="34.9 50.6 35.1 50.7 35.1 50.4 35 50.3 34.9 50.6" style="fill:#404041"/><polygon points="34.8 50.5 34.9 50.6 34.9 50.3 34.8 50.2 34.8 50.5" style="fill:#404041"/><polygon points="34.6 50.4 34.7 50.5 34.8 50.1 34.6 50 34.6 50.4" style="fill:#404041"/><polygon points="34.4 50.2 34.5 50.3 34.6 50 34.5 49.9 34.4 50.2" style="fill:#404041"/><polygon points="34.2 50.1 34.4 50.2 34.4 49.9 34.3 49.8 34.2 50.1" style="fill:#404041"/><polygon points="36.2 52.1 36.3 52.2 36.4 51.9 36.3 51.8 36.2 52.1" style="fill:#404041"/><polygon points="36 52 36.1 52.1 36.2 51.7 36.1 51.6 36 52" style="fill:#404041"/><polygon points="35.9 51.8 36 51.9 36 51.6 35.9 51.5 35.9 51.8" style="fill:#404041"/><polygon points="35.6 51.6 35.7 51.7 35.7 51.4 35.6 51.3 35.6 51.6" style="fill:#404041"/><polygon points="35.4 51.5 35.5 51.6 35.5 51.2 35.4 51.1 35.4 51.5" style="fill:#404041"/><polygon points="35.2 51.3 35.3 51.4 35.4 51.1 35.3 51 35.2 51.3" style="fill:#404041"/><polygon points="35.1 51.2 35.2 51.3 35.2 51 35.1 50.9 35.1 51.2" style="fill:#404041"/><polygon points="34.9 51.1 35 51.2 35 50.8 34.9 50.8 34.9 51.1" style="fill:#404041"/><polygon points="34.7 50.9 34.8 51 34.9 50.7 34.8 50.6 34.7 50.9" style="fill:#404041"/><polygon points="34.4 50.7 34.5 50.8 34.5 50.4 34.4 50.3 34.4 50.7" style="fill:#404041"/><polygon points="34.2 50.5 34.3 50.6 34.3 50.3 34.2 50.2 34.2 50.5" style="fill:#404041"/><polygon points="36.1 53 36.2 53.1 36.3 52.8 36.1 52.7 36.1 53" style="fill:#404041"/><polygon points="35.9 52.9 36 53 36.1 52.7 36 52.6 35.9 52.9" style="fill:#404041"/><polygon points="35.7 52.8 35.9 52.9 35.9 52.5 35.8 52.5 35.7 52.8" style="fill:#404041"/><polygon points="35.4 52.5 35.6 52.6 35.6 52.3 35.5 52.2 35.4 52.5" style="fill:#404041"/><polygon points="35.3 52.4 35.4 52.5 35.4 52.2 35.3 52.1 35.3 52.4" style="fill:#404041"/><polygon points="35.1 52.3 35.2 52.4 35.2 52 35.1 51.9 35.1 52.3" style="fill:#404041"/><polygon points="34.9 52.2 35.1 52.2 35.1 51.9 35 51.8 34.9 52.2" style="fill:#404041"/><polygon points="34.8 52 34.9 52.1 34.9 51.8 34.8 51.7 34.8 52" style="fill:#404041"/><polygon points="36.2 52.6 36.3 52.7 36.3 52.3 36.2 52.2 36.2 52.6" style="fill:#404041"/><polygon points="36 52.4 36.1 52.5 36.1 52.2 36 52.1 36 52.4" style="fill:#404041"/><polygon points="35.7 52.2 35.8 52.3 35.8 52 35.7 51.9 35.7 52.2" style="fill:#404041"/><polygon points="35.5 52.1 35.6 52.2 35.7 51.8 35.6 51.7 35.5 52.1" style="fill:#404041"/><polygon points="35.3 51.9 35.4 52 35.5 51.7 35.4 51.6 35.3 51.9" style="fill:#404041"/><polygon points="35.2 51.8 35.3 51.9 35.3 51.6 35.2 51.5 35.2 51.8" style="fill:#404041"/><polygon points="34.8 51.5 34.9 51.6 35 51.3 34.9 51.2 34.8 51.5" style="fill:#404041"/><polygon points="34.7 51.4 34.8 51.5 34.8 51.2 34.7 51.1 34.7 51.4" style="fill:#404041"/><polygon points="34.5 51.3 34.6 51.4 34.6 51 34.5 50.9 34.5 51.3" style="fill:#404041"/><polygon points="34.1 51 34.2 51.1 34.3 50.8 34.2 50.7 34.1 51" style="fill:#404041"/><polygon points="35.2 49.7 35.3 49.8 35.3 49.5 35.2 49.4 35.2 49.7" style="fill:#404041"/><polygon points="34.4 49.1 35.1 49.7 35.2 49.3 34.5 48.8 34.4 49.1" style="fill:#404041"/><polygon points="43.8 46.5 42.6 47.2 39.9 45.7 41.1 45 43.8 46.5" style="fill:#bbbdbf"/><polygon points="36 43.4 37.2 42.7 39.9 44.3 38.7 45 36 43.4" style="fill:#bbbdbf"/><polygon points="38.7 45 39.9 44.3 42.6 42.7 43.8 43.4 41.1 45 39.9 45.7 37.2 47.2 36 46.5 38.7 45" style="fill:#c6c6c6"/><polygon points="36.7 46.9 43.3 43.1 43.2 43.1 36.6 46.9 36.7 46.9" style="fill:#d0d2d3"/><polygon points="36 54.1 36 46.5 37.2 47.2 37.2 54.8 36 54.1" style="fill:#bbbdbf"/><path d="M45,51.5l.3-.3h0v-.1h.1c.1,0,.1-.1.2-.1h.3c.1,0,.1.1.2.2H46l-.1.1h-.1l-.1.1h-.1v.8s0,.1.1,0l.1-.1V52h.1v.1c0,.1,0,.1-.1.1h-.1v-.8h0l-.1.1h-.1a.1.1,0,0,0-.1.1h0a.31.31,0,0,0-.2.1l-.1.1h0c0-.1.1-.2.1-.3C44.8,51.7,44.9,51.6,45,51.5Z" style="fill:#af9b7b"/><path d="M44.6,51.6V53c0,.1.1.2.2.1l1.2-.7a.52.52,0,0,0,.2-.4V50.7c0-.1-.1-.2-.2-.1l-1.2.7C44.7,51.3,44.6,51.5,44.6,51.6Zm0,0a.35.35,0,0,1,.1-.2l1.2-.7c.1,0,.1,0,.1.1v1.4a.35.35,0,0,1-.1.2l-1.2.7c-.1,0-.1,0-.1-.1Z" style="fill:#af9b7b"/><path d="M44,53.2c.1,0,.1-.2.1-.2l-.1-.1-.1.1v-.3h.2a.1.1,0,0,1-.1.1l.1.1v.2c0,.1-.1.3-.2.3l-.1.1v-.1C43.9,53.2,43.9,53.2,44,53.2Z" style="fill:#af9b7b"/><path d="M43.9,52.5h0c0,.1-.1.1-.1.2h0v-.3C43.9,52.4,43.9,52.4,43.9,52.5Z" style="fill:#af9b7b"/><path d="M44.2,53.4c.1,0,.1-.1.1-.2V51.8a.1.1,0,0,0-.1-.1l-.3.2v-.1l.3-.2c.1-.1.2,0,.2.1v1.4c0,.2-.1.4-.2.3l-.4.3v-.1Z" style="fill:#af9b7b"/><path d="M41.6,54.6a.1.1,0,0,0-.1.1v-.9h-.1c0-.1.1-.2.1-.4a.35.35,0,0,0,.1.2h-.1A3.75,3.75,0,0,1,41.6,54.6Z" style="fill:#af9b7b"/><path d="M41.9,54.4a.1.1,0,0,0-.1.1v-.9h-.1c0-.1.1-.2.1-.4a.35.35,0,0,0,.1.2h-.1A3.75,3.75,0,0,1,41.9,54.4Z" style="fill:#af9b7b"/><path d="M42.1,54.5c-.3.2-.6.3-.9.5v-.1c.3-.2.6-.3.9-.5Z" style="fill:#af9b7b"/><path d="M40.9,53.8v1.4c0,.1.1.2.2.1l1.2-.7a.52.52,0,0,0,.2-.4V52.8c0-.1-.1-.2-.2-.1l-1.2.7C40.9,53.5,40.9,53.6,40.9,53.8Zm0-.1a.35.35,0,0,1,.1-.2l1.2-.7c.1,0,.1,0,.1.1v1.4a.35.35,0,0,1-.1.2l-1.2.7c-.1,0-.1,0-.1-.1Z" style="fill:#af9b7b"/><path d="M43.8,51.8l-.9.5a.52.52,0,0,0-.2.4v1.4c0,.1.1.2.2.1l.9-.5v.4l-1.2.7V47.2l1.2-.7Z" style="fill:#bbbdbf"/><path d="M43.8,52.3v-.5l-.9.5c-.1,0-.1.1-.1.2v1.4a.1.1,0,0,0,.1.1l.9-.5v-.2c-.1,0-.2.1-.3.1h0v-.1h0c.1,0,.2-.1.3-.1v-.6h0c-.1-.1-.1-.2-.2-.3a.31.31,0,0,0-.2.1.35.35,0,0,1-.1.2h.1c-.1.1-.1.2-.2.2v-.3h.1a.35.35,0,0,1,.1-.2.1.1,0,0,1,.1-.1c.1-.2.3-.2.3-.1Zm-.7.7h0a1.27,1.27,0,0,1-.1.6c0,.1,0,.2.1.1s.1-.1.2-.1v-.1h.2v.1l-.2.2h0v-.1c-.1,0-.1.1-.2.1H43a.19.19,0,0,1-.1-.3c.1-.1.1-.3.2-.5Z" style="fill:#bbbdbf"/><path d="M43.2,53.1c-.1.2-.1.3-.2.5s0,.2.1.1.1-.1.2-.1v-.1h.2v.1l-.2.2h0v-.1c-.1,0-.1.1-.2.1H43a.19.19,0,0,1-.1-.3c.1-.2.1-.3.2-.5l.1.1c-.1-.1,0-.1,0,0Z" style="fill:#aaa"/><path d="M43.5,53.6v-.1h0c.1,0,.2-.1.3-.1v.1a.77.77,0,0,0-.3.1Z" style="fill:#af9b7b"/><path d="M43.6,52.3a.31.31,0,0,0-.2.1.35.35,0,0,1-.1.2h.1c-.1.1-.1.2-.2.2v-.3h.1a.35.35,0,0,1,.1-.2.1.1,0,0,1,.1-.1c.1-.2.3-.2.3-.1a.1.1,0,0,0,.1.1v.3h0C43.8,52.5,43.7,52.4,43.6,52.3Z" style="fill:#aaa"/><path d="M42.7,54.1V52.7a.76.76,0,0,1,.2-.4l.9-.5v.1l-.9.5c-.1,0-.1.1-.1.2l-.1,1.5c.1,0,.1.1.2,0l.9-.5v.1l-.9.5C42.8,54.3,42.7,54.3,42.7,54.1Z" style="fill:#aaa"/><polygon points="39.9 56.4 33.4 60.2 33.4 52.6 39.9 48.8 39.9 56.4" style="fill:url(#al)"/><polygon points="39.9 48.8 33.4 52.6 26.8 48.8 33.4 45 39.9 48.8" style="fill:url(#am)"/><polygon points="26.8 56.4 33.4 60.2 33.4 52.6 26.8 48.8 26.8 56.4" style="fill:url(#an)"/><g style="opacity:0.6600000262260437"><polygon points="37.5 50.6 39.6 49.4 39.6 50.4 37.5 51.6 37.5 50.6" style="fill:#fff"/><polygon points="39.2 49.9 39.3 49.8 39.3 50.3 39.2 50.4 39.2 49.9" style="fill:#404041"/><polygon points="39 50 39.1 49.9 39.1 50.4 39 50.5 39 50" style="fill:#404041"/><polygon points="38.3 50.4 38.4 50.3 38.4 50.9 38.3 50.9 38.3 50.4" style="fill:#404041"/><polygon points="38.7 50.2 38.8 50.1 38.8 50.6 38.7 50.7 38.7 50.2" style="fill:#404041"/><polygon points="38.5 50.3 38.6 50.2 38.6 50.7 38.5 50.8 38.5 50.3" style="fill:#404041"/><polygon points="37.8 50.6 38 50.6 38 51.1 37.8 51.2 37.8 50.6" style="fill:#404041"/><polygon points="37.7 50.7 37.8 50.7 37.8 51.2 37.7 51.3 37.7 50.7" style="fill:#404041"/></g><polygon points="27.2 55.3 29.8 57.4 30.3 54 27.6 52 27.2 55.3" style="fill:#bbbdbf"/><polygon points="29.8 54.4 29.9 54.6 30 54.1 29.8 54 29.8 54.4" style="fill:#404041"/><polygon points="29.3 54.1 29.5 54.2 29.5 53.7 29.4 53.6 29.3 54.1" style="fill:#404041"/><polygon points="28.8 53.7 29.2 54 29.2 53.6 28.9 53.4 28.8 53.7" style="fill:#404041"/><polygon points="29.8 55 29.9 55.1 29.9 54.8 29.8 54.7 29.8 55" style="fill:#404041"/><polygon points="29.6 54.9 29.7 55 29.7 54.6 29.6 54.5 29.6 54.9" style="fill:#404041"/><polygon points="29.4 54.7 29.5 54.8 29.6 54.5 29.4 54.4 29.4 54.7" style="fill:#404041"/><polygon points="29.1 54.5 29.2 54.6 29.3 54.3 29.2 54.2 29.1 54.5" style="fill:#404041"/><polygon points="28.9 54.4 29 54.5 29.1 54.1 29 54 28.9 54.4" style="fill:#404041"/><polygon points="28.8 54.2 28.9 54.3 28.9 54 28.8 53.9 28.8 54.2" style="fill:#404041"/><polygon points="28.6 54.1 28.7 54.2 28.8 53.9 28.6 53.8 28.6 54.1" style="fill:#404041"/><polygon points="29.7 55.5 29.8 55.6 29.9 55.2 29.7 55.1 29.7 55.5" style="fill:#404041"/><polygon points="29.5 55.3 29.6 55.4 29.7 55.1 29.6 55 29.5 55.3" style="fill:#404041"/><polygon points="29.2 55.1 29.3 55.2 29.4 54.9 29.3 54.8 29.2 55.1" style="fill:#404041"/><polygon points="29 55 29.2 55.1 29.2 54.7 29.1 54.6 29 55" style="fill:#404041"/><polygon points="28.9 54.8 29 54.9 29 54.6 28.9 54.5 28.9 54.8" style="fill:#404041"/><polygon points="28.7 54.7 28.8 54.8 28.8 54.5 28.7 54.4 28.7 54.7" style="fill:#404041"/><polygon points="28.4 54.4 28.5 54.5 28.5 54.2 28.4 54.1 28.4 54.4" style="fill:#404041"/><polygon points="28.2 54.3 28.3 54.4 28.3 54.1 28.2 54 28.2 54.3" style="fill:#404041"/><polygon points="28 54.2 28.1 54.3 28.2 53.9 28.1 53.8 28 54.2" style="fill:#404041"/><polygon points="27.8 54 27.9 54.1 28 53.8 27.9 53.7 27.8 54" style="fill:#404041"/><polygon points="27.7 53.9 27.8 54 27.8 53.7 27.7 53.6 27.7 53.9" style="fill:#404041"/><polygon points="29.6 55.9 29.7 56 29.8 55.7 29.7 55.6 29.6 55.9" style="fill:#404041"/><polygon points="29.4 55.8 29.6 55.9 29.6 55.5 29.5 55.4 29.4 55.8" style="fill:#404041"/><polygon points="29.3 55.6 29.4 55.7 29.4 55.4 29.3 55.3 29.3 55.6" style="fill:#404041"/><polygon points="29 55.4 29.1 55.5 29.1 55.2 29 55.1 29 55.4" style="fill:#404041"/><polygon points="28.8 55.3 28.9 55.4 29 55 28.8 54.9 28.8 55.3" style="fill:#404041"/><polygon points="28.6 55.1 28.7 55.2 28.8 54.9 28.7 54.8 28.6 55.1" style="fill:#404041"/><polygon points="28.5 55 28.6 55.1 28.6 54.8 28.5 54.7 28.5 55" style="fill:#404041"/><polygon points="28.3 54.9 28.4 55 28.5 54.6 28.3 54.6 28.3 54.9" style="fill:#404041"/><polygon points="28.1 54.7 28.2 54.8 28.3 54.5 28.2 54.4 28.1 54.7" style="fill:#404041"/><polygon points="27.8 54.5 27.9 54.6 27.9 54.2 27.8 54.1 27.8 54.5" style="fill:#404041"/><polygon points="27.6 54.3 27.7 54.4 27.8 54.1 27.6 54 27.6 54.3" style="fill:#404041"/><polygon points="29.5 56.9 29.6 56.9 29.7 56.6 29.5 56.5 29.5 56.9" style="fill:#404041"/><polygon points="29.3 56.7 29.4 56.8 29.5 56.5 29.4 56.4 29.3 56.7" style="fill:#404041"/><polygon points="29.2 56.6 29.3 56.7 29.3 56.3 29.2 56.3 29.2 56.6" style="fill:#404041"/><polygon points="28.9 56.3 29 56.4 29 56.1 28.9 56 28.9 56.3" style="fill:#404041"/><polygon points="28.7 56.2 28.8 56.3 28.8 56 28.7 55.9 28.7 56.2" style="fill:#404041"/><polygon points="28.5 56.1 28.6 56.2 28.7 55.8 28.5 55.7 28.5 56.1" style="fill:#404041"/><polygon points="28.4 56 28.5 56 28.5 55.7 28.4 55.6 28.4 56" style="fill:#404041"/><polygon points="28.2 55.8 28.3 55.9 28.3 55.6 28.2 55.5 28.2 55.8" style="fill:#404041"/><polygon points="29.6 56.4 29.7 56.5 29.7 56.1 29.6 56 29.6 56.4" style="fill:#404041"/><polygon points="29.4 56.2 29.5 56.3 29.5 56 29.4 55.9 29.4 56.2" style="fill:#404041"/><polygon points="29.1 56 29.2 56.1 29.3 55.8 29.1 55.7 29.1 56" style="fill:#404041"/><polygon points="28.9 55.9 29 56 29.1 55.6 29 55.5 28.9 55.9" style="fill:#404041"/><polygon points="28.7 55.7 28.9 55.8 28.9 55.5 28.8 55.4 28.7 55.7" style="fill:#404041"/><polygon points="28.6 55.6 28.7 55.7 28.7 55.4 28.6 55.3 28.6 55.6" style="fill:#404041"/><polygon points="28.2 55.3 28.3 55.4 28.4 55.1 28.3 55 28.2 55.3" style="fill:#404041"/><polygon points="28.1 55.2 28.2 55.3 28.2 55 28.1 54.9 28.1 55.2" style="fill:#404041"/><polygon points="27.9 55.1 28 55.2 28 54.8 27.9 54.7 27.9 55.1" style="fill:#404041"/><polygon points="27.5 54.8 27.7 54.9 27.7 54.6 27.6 54.5 27.5 54.8" style="fill:#404041"/><polygon points="28.6 53.5 28.7 53.6 28.8 53.3 28.6 53.2 28.6 53.5" style="fill:#404041"/><polygon points="27.8 52.9 28.5 53.5 28.6 53.1 27.9 52.6 27.8 52.9" style="fill:#404041"/><polygon points="37.2 50.3 36 51 33.4 49.5 34.6 48.8 37.2 50.3" style="fill:#bbbdbf"/><polygon points="29.5 47.2 30.7 46.5 33.4 48.1 32.1 48.8 29.5 47.2" style="fill:#bbbdbf"/><polygon points="32.1 48.8 33.4 48.1 36 46.5 37.2 47.2 34.6 48.8 33.4 49.5 30.7 51 29.5 50.3 32.1 48.8" style="fill:#c6c6c6"/><polygon points="30.1 50.7 36.7 46.9 36.6 46.9 30 50.7 30.1 50.7" style="fill:#d0d2d3"/><polygon points="29.5 57.9 29.5 50.3 30.7 51 30.7 58.6 29.5 57.9" style="fill:#bbbdbf"/><path d="M38.4,55.3l.3-.3h0v-.1h.1c.1,0,.1-.1.2-.1h.3c.1,0,.1.1.2.2h-.1l-.1.1h-.1l-.1.1H39V56s0,.1.1,0l.1-.1v-.1h.1v.1c0,.1,0,.1-.1.1h-.1v-.8h0l-.1.1h-.1a.1.1,0,0,0-.1.1h0a.31.31,0,0,0-.2.1l-.1.1h0c0-.1.1-.2.1-.3C38.3,55.5,38.3,55.4,38.4,55.3Z" style="fill:#af9b7b"/><path d="M38,55.4v1.4c0,.1.1.2.2.1l1.2-.7a.52.52,0,0,0,.2-.4V54.4c0-.1-.1-.2-.2-.1l-1.2.7A.76.76,0,0,0,38,55.4Zm0,0a.35.35,0,0,1,.1-.2l1.2-.7c.1,0,.1,0,.1.1V56a.35.35,0,0,1-.1.2l-1.2.7c-.1,0-.1,0-.1-.1Z" style="fill:#af9b7b"/><path d="M37.4,57c.1,0,.1-.2.1-.2l-.1-.1-.1.1v-.3h.2a.1.1,0,0,1-.1.1l.1.1v.2c0,.1-.1.3-.2.3l-.1.1v-.1C37.3,57,37.3,57,37.4,57Z" style="fill:#af9b7b"/><path d="M37.3,56.3h0c0,.1-.1.1-.1.2h0v-.3C37.3,56.2,37.3,56.2,37.3,56.3Z" style="fill:#af9b7b"/><path d="M37.6,57.2c.1,0,.1-.1.1-.2V55.6a.1.1,0,0,0-.1-.1l-.3.2v-.1l.3-.2c.1-.1.2,0,.2.1v1.4c0,.2-.1.4-.2.3l-.3.3v-.1Z" style="fill:#af9b7b"/><path d="M34.3,57.6V59c0,.1.1.2.2.1l1.2-.7a.52.52,0,0,0,.2-.4V56.6c0-.1-.1-.2-.2-.1l-1.2.7A.52.52,0,0,0,34.3,57.6Zm0-.1a.35.35,0,0,1,.1-.2l1.2-.7c.1,0,.1,0,.1.1v1.4a.35.35,0,0,1-.1.2l-1.2.7c-.1,0-.1,0-.1-.1Z" style="fill:#af9b7b"/><path d="M37.2,55.6l-.9.5a.52.52,0,0,0-.2.4v1.4c0,.1.1.2.2.1l.9-.5v.4l-1.2.7V51l1.2-.7Z" style="fill:#bbbdbf"/><path d="M37.2,56.1v-.4l-.9.5c-.1,0-.1.1-.1.2v1.4a.1.1,0,0,0,.1.1l.9-.5v-.2c-.1,0-.2.1-.3.1h0v-.1h0c.1,0,.2-.1.3-.1v-.6h0c-.1-.1-.1-.2-.2-.3a.31.31,0,0,0-.2.1.35.35,0,0,1-.1.2h.1c-.1.1-.1.2-.2.2v-.3h.1a.35.35,0,0,1,.1-.2.1.1,0,0,1,.1-.1c.1-.2.3-.2.3-.1Zm-.7.7h.1s0,.1-.1,0a1.27,1.27,0,0,1-.1.6c0,.1,0,.2.1.1s.1-.1.2-.1v-.1h.2v.1l-.2.2h0v-.1c-.1,0-.1.1-.2.1h-.1a.19.19,0,0,1-.1-.3c.1-.1.1-.3.2-.5Z" style="fill:#bbbdbf"/><path d="M36.6,56.9c-.1.2-.1.3-.2.5s0,.2.1.1.1-.1.2-.1v-.1h.2v.1l-.2.2h0v-.1c-.1,0-.1.1-.2.1h-.1a.19.19,0,0,1-.1-.3c.1-.2.1-.3.2-.5l.1.1Z" style="fill:#aaa"/><path d="M37,56.1a.31.31,0,0,0-.2.1.35.35,0,0,1-.1.2h.1c-.1.1-.1.2-.2.2v-.3h.1a.35.35,0,0,1,.1-.2.1.1,0,0,1,.1-.1c.1-.2.3-.2.3-.1a.1.1,0,0,0,.1.1v.3h0C37.2,56.3,37.1,56.2,37,56.1Z" style="fill:#aaa"/><path d="M36.1,57.9V56.5a.76.76,0,0,1,.2-.4l.9-.5v.1l-.9.5c-.1,0-.1.1-.1.2l-.1,1.5c.1,0,.1.1.2,0l.9-.5v.1l-.9.5C36.2,58.1,36.1,58.1,36.1,57.9Z" style="fill:#aaa"/><polygon points="59.7 45 53.1 48.8 46.5 45 53.1 41.2 59.7 45" style="fill:url(#ao)"/><polygon points="46.5 52.6 53.1 56.4 53.1 48.8 46.5 45 46.5 52.6" style="fill:url(#ap)"/><polygon points="46.9 51.5 49.6 53.6 50 50.2 47.4 48.2 46.9 51.5" style="fill:#bbbdbf"/><polygon points="47.6 50.2 47.7 50.3 47.8 50 47.6 49.9 47.6 50.2" style="fill:#404041"/><polygon points="47.4 50.1 47.5 50.2 47.6 49.9 47.5 49.8 47.4 50.1" style="fill:#404041"/><polygon points="47.5 50.7 47.6 50.8 47.7 50.4 47.6 50.3 47.5 50.7" style="fill:#404041"/><polygon points="47.4 50.5 47.5 50.6 47.5 50.3 47.4 50.2 47.4 50.5" style="fill:#404041"/><polygon points="47.3 51 47.4 51.1 47.5 50.8 47.3 50.7 47.3 51" style="fill:#404041"/><polygon points="47.6 49.1 48.3 49.7 48.3 49.3 47.7 48.8 47.6 49.1" style="fill:#404041"/><polygon points="53.1 56.4 46.5 60.2 46.5 52.6 53.1 48.8 53.1 56.4" style="fill:url(#aq)"/><polygon points="53.1 48.8 46.5 52.6 39.9 48.8 46.5 45 53.1 48.8" style="fill:url(#ar)"/><polygon points="39.9 56.4 46.5 60.2 46.5 52.6 39.9 48.8 39.9 56.4" style="fill:url(#as)"/><polygon points="40.3 55.3 43 57.4 43.5 54 40.8 52 40.3 55.3" style="fill:#bbbdbf"/><polygon points="42.9 54.4 43.1 54.6 43.2 54.1 43 54 42.9 54.4" style="fill:#404041"/><polygon points="42.5 54.1 42.7 54.2 42.7 53.7 42.5 53.6 42.5 54.1" style="fill:#404041"/><polygon points="42 53.7 42.4 54 42.4 53.6 42 53.4 42 53.7" style="fill:#404041"/><polygon points="42.9 55 43 55.1 43.1 54.8 43 54.7 42.9 55" style="fill:#404041"/><polygon points="42.7 54.9 42.9 55 42.9 54.6 42.8 54.5 42.7 54.9" style="fill:#404041"/><polygon points="42.6 54.7 42.7 54.8 42.7 54.5 42.6 54.4 42.6 54.7" style="fill:#404041"/><polygon points="42.3 54.5 42.4 54.6 42.4 54.3 42.3 54.2 42.3 54.5" style="fill:#404041"/><polygon points="42.1 54.4 42.2 54.5 42.3 54.1 42.1 54 42.1 54.4" style="fill:#404041"/><polygon points="41.9 54.2 42 54.3 42.1 54 42 53.9 41.9 54.2" style="fill:#404041"/><polygon points="41.8 54.1 41.9 54.2 41.9 53.9 41.8 53.8 41.8 54.1" style="fill:#404041"/><polygon points="42.9 55.5 43 55.6 43 55.2 42.9 55.1 42.9 55.5" style="fill:#404041"/><polygon points="42.7 55.3 42.8 55.4 42.8 55.1 42.7 55 42.7 55.3" style="fill:#404041"/><polygon points="42.4 55.1 42.5 55.2 42.6 54.9 42.4 54.8 42.4 55.1" style="fill:#404041"/><polygon points="42.2 55 42.3 55.1 42.4 54.7 42.3 54.6 42.2 55" style="fill:#404041"/><polygon points="42 54.8 42.2 54.9 42.2 54.6 42.1 54.5 42 54.8" style="fill:#404041"/><polygon points="41.9 54.7 42 54.8 42 54.5 41.9 54.4 41.9 54.7" style="fill:#404041"/><polygon points="41.5 54.4 41.6 54.5 41.7 54.2 41.6 54.1 41.5 54.4" style="fill:#404041"/><polygon points="41.4 54.3 41.5 54.4 41.5 54.1 41.4 54 41.4 54.3" style="fill:#404041"/><polygon points="41.2 54.2 41.3 54.3 41.3 53.9 41.2 53.8 41.2 54.2" style="fill:#404041"/><polygon points="41 54 41.1 54.1 41.2 53.8 41 53.7 41 54" style="fill:#404041"/><polygon points="40.8 53.9 40.9 54 41 53.7 40.9 53.6 40.8 53.9" style="fill:#404041"/><polygon points="42.8 55.9 42.9 56 43 55.7 42.9 55.6 42.8 55.9" style="fill:#404041"/><polygon points="42.6 55.8 42.7 55.9 42.8 55.5 42.7 55.4 42.6 55.8" style="fill:#404041"/><polygon points="42.5 55.6 42.6 55.7 42.6 55.4 42.5 55.3 42.5 55.6" style="fill:#404041"/><polygon points="42.2 55.4 42.3 55.5 42.3 55.2 42.2 55.1 42.2 55.4" style="fill:#404041"/><polygon points="42 55.3 42.1 55.4 42.1 55 42 54.9 42 55.3" style="fill:#404041"/><polygon points="41.8 55.1 41.9 55.2 42 54.9 41.8 54.8 41.8 55.1" style="fill:#404041"/><polygon points="41.7 55 41.8 55.1 41.8 54.8 41.7 54.7 41.7 55" style="fill:#404041"/><polygon points="41.5 54.9 41.6 55 41.6 54.6 41.5 54.6 41.5 54.9" style="fill:#404041"/><polygon points="41.3 54.8 41.4 54.8 41.5 54.5 41.3 54.4 41.3 54.8" style="fill:#404041"/><polygon points="40.9 54.5 41.1 54.6 41.1 54.2 41 54.1 40.9 54.5" style="fill:#404041"/><polygon points="40.8 54.3 40.9 54.4 40.9 54.1 40.8 54 40.8 54.3" style="fill:#404041"/><polygon points="42.7 56.9 42.8 56.9 42.8 56.6 42.7 56.5 42.7 56.9" style="fill:#404041"/><polygon points="42.5 56.7 42.6 56.8 42.7 56.5 42.5 56.4 42.5 56.7" style="fill:#404041"/><polygon points="42.3 56.6 42.4 56.7 42.5 56.3 42.4 56.3 42.3 56.6" style="fill:#404041"/><polygon points="42 56.3 42.1 56.4 42.2 56.1 42.1 56 42 56.3" style="fill:#404041"/><polygon points="41.8 56.2 42 56.3 42 56 41.9 55.9 41.8 56.2" style="fill:#404041"/><polygon points="41.7 56.1 41.8 56.2 41.8 55.8 41.7 55.8 41.7 56.1" style="fill:#404041"/><polygon points="41.5 56 41.6 56 41.7 55.7 41.6 55.6 41.5 56" style="fill:#404041"/><polygon points="41.3 55.8 41.5 55.9 41.5 55.6 41.4 55.5 41.3 55.8" style="fill:#404041"/><polygon points="42.7 56.4 42.9 56.5 42.9 56.1 42.8 56 42.7 56.4" style="fill:#404041"/><polygon points="42.6 56.2 42.7 56.3 42.7 56 42.6 55.9 42.6 56.2" style="fill:#404041"/><polygon points="42.3 56 42.4 56.1 42.4 55.8 42.3 55.7 42.3 56" style="fill:#404041"/><polygon points="42.1 55.9 42.2 56 42.3 55.6 42.1 55.5 42.1 55.9" style="fill:#404041"/><polygon points="41.9 55.7 42 55.8 42.1 55.5 42 55.4 41.9 55.7" style="fill:#404041"/><polygon points="41.7 55.6 41.9 55.7 41.9 55.4 41.8 55.3 41.7 55.6" style="fill:#404041"/><polygon points="41.4 55.3 41.5 55.4 41.6 55.1 41.5 55 41.4 55.3" style="fill:#404041"/><polygon points="41.2 55.2 41.4 55.3 41.4 55 41.3 54.9 41.2 55.2" style="fill:#404041"/><polygon points="41.1 55.1 41.2 55.2 41.2 54.8 41.1 54.7 41.1 55.1" style="fill:#404041"/><polygon points="40.7 54.8 40.8 54.9 40.9 54.6 40.8 54.5 40.7 54.8" style="fill:#404041"/><polygon points="41.8 53.5 41.9 53.6 41.9 53.3 41.8 53.2 41.8 53.5" style="fill:#404041"/><polygon points="41 52.9 41.7 53.5 41.8 53.1 41.1 52.6 41 52.9" style="fill:#404041"/><polygon points="50.4 50.3 49.2 51 46.5 49.5 47.7 48.8 50.4 50.3" style="fill:#bbbdbf"/><polygon points="42.6 47.2 43.8 46.5 46.5 48.1 45.3 48.8 42.6 47.2" style="fill:#bbbdbf"/><polygon points="45.3 48.8 46.5 48.1 49.2 46.5 50.4 47.2 47.7 48.8 46.5 49.5 43.8 51 42.6 50.3 45.3 48.8" style="fill:#c6c6c6"/><polygon points="43.3 50.7 49.8 46.9 49.8 46.9 43.2 50.7 43.3 50.7" style="fill:#d0d2d3"/><polygon points="42.6 57.9 42.6 50.3 43.8 51 43.8 58.6 42.6 57.9" style="fill:#bbbdbf"/><polygon points="46.5 60.2 39.9 64 39.9 56.4 46.5 52.6 46.5 60.2" style="fill:url(#at)"/><polygon points="46.5 52.6 39.9 56.4 33.4 52.6 39.9 48.8 46.5 52.6" style="fill:url(#au)"/><polygon points="33.4 60.2 39.9 64 39.9 56.4 33.4 52.6 33.4 60.2" style="fill:url(#av)"/><g style="opacity:0.6600000262260437"><polygon points="44.1 54.4 46.2 53.1 46.2 54.2 44.1 55.4 44.1 54.4" style="fill:#fff"/><polygon points="45.8 53.7 45.9 53.6 45.9 54.1 45.8 54.2 45.8 53.7" style="fill:#404041"/><polygon points="45.6 53.8 45.7 53.7 45.7 54.2 45.6 54.3 45.6 53.8" style="fill:#404041"/><polygon points="45.4 53.9 45.5 53.8 45.5 54.3 45.4 54.4 45.4 53.9" style="fill:#404041"/><polygon points="44.9 54.2 45 54.1 45 54.7 44.9 54.7 44.9 54.2" style="fill:#404041"/><polygon points="45.2 54 45.4 53.9 45.4 54.4 45.2 54.5 45.2 54" style="fill:#404041"/><polygon points="45.1 54.1 45.2 54 45.2 54.5 45.1 54.6 45.1 54.1" style="fill:#404041"/><polygon points="44.4 54.4 44.6 54.4 44.6 54.9 44.4 55 44.4 54.4" style="fill:#404041"/><polygon points="44.3 54.5 44.4 54.5 44.4 55 44.3 55.1 44.3 54.5" style="fill:#404041"/></g><polygon points="33.8 59.1 36.4 61.2 36.9 57.8 34.2 55.8 33.8 59.1" style="fill:#bbbdbf"/><polygon points="34.4 56.7 35.1 57.3 35.2 56.9 34.5 56.4 34.4 56.7" style="fill:#404041"/><polygon points="43.8 54.1 42.6 54.8 39.9 53.3 41.1 52.6 43.8 54.1" style="fill:#bbbdbf"/><polygon points="36 51 37.3 50.3 39.9 51.9 38.7 52.6 36 51" style="fill:#bbbdbf"/><polygon points="38.7 52.6 39.9 51.9 42.6 50.3 43.8 51 41.1 52.6 39.9 53.3 37.3 54.8 36 54.1 38.7 52.6" style="fill:#c6c6c6"/><polygon points="36.7 54.5 43.3 50.7 43.2 50.7 36.6 54.5 36.7 54.5" style="fill:#d0d2d3"/><polygon points="36 61.7 36 54.1 37.3 54.8 37.3 62.4 36 61.7" style="fill:#bbbdbf"/><path d="M43.8,59.4l-.9.5a.52.52,0,0,0-.2.4v1.4c0,.1.1.2.2.1l.9-.5v.4l-1.2.7V54.8l1.2-.7Z" style="fill:#bbbdbf"/><polygon points="28 57.1 27 57.1 27 56.5 28 57.1" style="fill:#bbbdbf"/></svg>