<svg class="h-full w-full hidden lg:inline-block" viewBox="0 0 1280 720" fill="none" xmlns="http://www.w3.org/2000/svg"><path opacity="0.1" d="M1280 -120L0 -120M1280 -60L0 -59.9999M1280 0L0 0.000114441M1280 60L0 60.0001M1280 120L0 120M1280 180L0 180M1280 240L0 240M1280 300L0 300M1280 360L0 360M1280 420L0 420M1280 480L0 480M1280 540L0 540M1280 600L0 600M1280 660L0 660M1280 720L0 720M1280 780L0 780M1280 840L0 840M-170 0V720M-110 0V720M-290 0V720M-230 0V720M-50 0V720M10 0V720M70 0V720M130 0V720M190 0V720M250 0V720M310 0V720M370 0V720M430 0V720M490 0V720M550 0V720M610 0V720M670 0V720M730 0V720M790 0V720M850 0V720M910 0V720M970 0V720M1030 0V720M1090 0V720M1150 0V720M1210 0V720M1270 0V720M1330 0V720M1390 0V720M1450 0V720M1510 0V720M1570 0V720" stroke="url(#paint0_radial_102_16)"/><path id="firstLight" class="element-one" d="M429 300H549.5" stroke="url(#paint1_linear_102_16)" stroke-linecap="round"/><path d="M790 604.5L790 484" class="element-two" stroke="url(#paint2_linear_102_16)" stroke-linecap="round"/><defs><radialGradient id="paint0_radial_102_16" cx="0" cy="0" r="1" gradientUnits="userSpaceOnUse" gradientTransform="translate(640 360) rotate(90) scale(486 486)"><stop stop-color="white"/><stop offset="0.647944" stop-opacity="0"/></radialGradient><linearGradient id="paint1_linear_102_16" x1="550" y1="300" x2="433.5" y2="300" gradientUnits="userSpaceOnUse"><stop stop-color="white"/><stop offset="0.739901" stop-color="white" stop-opacity="0"/></linearGradient><linearGradient id="paint2_linear_102_16" x1="790" y1="483.5" x2="790" y2="600" gradientUnits="userSpaceOnUse"><stop stop-color="white"/><stop offset="0.739901" stop-color="white" stop-opacity="0"/></linearGradient></defs></svg>